<?xml version="1.0" encoding="UTF-8"?>
<svg width="41px" height="35px" viewBox="0 0 41 35" version="1.1" xmlns="http://www.w3.org/2000/svg" xmlns:xlink="http://www.w3.org/1999/xlink">
    <!-- Generator: Sketch 42 (36781) - http://www.bohemiancoding.com/sketch -->
    <title>telegram-icon</title>
    <desc>Created with Sketch.</desc>
    <defs></defs>
    <g id="Page-1" stroke="none" stroke-width="1" fill="none" fill-rule="evenodd">
        <g id="Desktop-HD" transform="translate(-863.000000, -691.000000)" fill-rule="nonzero" fill="#2E4254">
            <g id="bottom" transform="translate(0.000000, 589.000000)">
                <g id="socials" transform="translate(534.000000, 102.000000)">
                    <g id="telegram-icon" transform="translate(329.000000, 0.000000)">
                        <g id="XMLID_496_">
                            <path d="M0.707881679,16.7846374 L9.94227099,20.2312023 L13.5165458,31.7260305 C13.7452481,32.4622328 14.6454962,32.7343511 15.2430344,32.2458206 L20.3904389,28.0495611 C20.93,27.6099237 21.6985305,27.5880153 22.2624046,27.9973282 L31.5464885,34.7377672 C32.1857061,35.2023855 33.0912977,34.8521183 33.2516031,34.0797137 L40.0526908,1.36526718 C40.2276908,0.521526718 39.398645,-0.182347328 38.5952481,0.128377863 L0.697061069,14.7483588 C-0.238187023,15.1090458 -0.230038168,16.4331679 0.707881679,16.7846374 Z M12.9405153,18.3965076 L30.987958,7.2810687 C31.3123092,7.08188931 31.6460115,7.52045802 31.3674809,7.77881679 L16.4731107,21.623855 C15.9495802,22.1111832 15.6118702,22.7633588 15.5162214,23.4712405 L15.008855,27.2312023 C14.9416603,27.7332252 14.2364504,27.7830534 14.0979198,27.2971947 L12.1466031,20.4408015 C11.9231107,19.6587786 12.2487977,18.8234542 12.9405153,18.3965076 Z" id="XMLID_497_"></path>
                        </g>
                    </g>
                </g>
            </g>
        </g>
    </g>
</svg>